<svg version="1.2" xmlns="http://www.w3.org/2000/svg" viewBox="0 0 1200 1200" width="1200" height="1200"><style>.a{fill:#e0b621}</style><path class="a" d="m384.4 896.8h25.2v53.3h-23q-92.3 0-123.8-27.4-31.1-27.4-31.1-109.3v-88.5q0-56-20-77.5-20-21.5-72.6-21.5h-22.6v-52.9h22.6q53 0 72.6-21.2 20-21.4 20-76.7v-88.9q0-81.9 31.1-108.9 31.5-27.4 123.8-27.4h23v53h-25.2q-52.3 0-68.2 16.3-15.9 16.3-15.9 68.5v91.9q0 58.2-17.1 84.5-16.7 26.3-57.4 35.5 41.1 10 57.8 36.3 16.7 26.4 16.7 84.2v91.8q0 52.3 15.9 68.6 15.9 16.3 68.2 16.3zm406 53.3v-53.3h26q51.9 0 67.4-16 15.9-15.9 15.9-68.9v-91.8q0-57.8 16.7-84.2 16.7-26.3 57.8-36.3-41.1-9.2-57.8-35.5-16.7-26.3-16.7-84.5v-91.9q0-52.6-15.9-68.5-15.5-16.3-67.4-16.3h-26v-53h23.4q92.2 0 123 27.4 31.1 27 31.1 108.9v88.9q0 55.3 20 76.7 20 21.2 72.6 21.2h23v52.9h-23q-52.6 0-72.6 21.5-20 21.5-20 77.5v88.5q0 81.9-31.1 109.3-30.8 27.4-123 27.4z"/><path class="a" d="m756.5 572.7q10.7 6 14.4 16.7 3.7 10.7 0 21.4-3.7 10.7-14.4 16.8l-235.4 139.1q-10 6-21.4 4-11.4-2-19.1-10.7-7.7-8.7-7.7-20.7v-278.3q0-13.3 8.1-21.7 8-8.4 19.4-10 11.3-1.7 20.7 4.3z"/></svg>